<?xml version="1.0" standalone="no"?>
<!DOCTYPE svg PUBLIC "-//W3C//DTD SVG 20010904//EN"
 "http://www.w3.org/TR/2001/REC-SVG-20010904/DTD/svg10.dtd">
<svg version="1.0" xmlns="http://www.w3.org/2000/svg"
 width="371.000000pt" height="242.000000pt" viewBox="0 0 371.000000 242.000000"
 preserveAspectRatio="xMidYMid meet">

<g transform="translate(0.000000,242.000000) scale(0.100000,-0.100000)"
fill="#000000" stroke="none">
<path d="M0 2388 l0 -31 23 20 c12 11 31 25 42 31 17 10 14 11 -22 12 -42 0
-43 -1 -43 -32z"/>
<path d="M1765 2255 c-493 -89 -838 -681 -749 -1284 55 -377 272 -697 565
-835 116 -55 187 -70 324 -70 137 0 208 15 324 70 307 144 521 473 571 878 15
115 9 283 -15 404 -84 435 -384 772 -745 838 -92 16 -183 16 -275 -1z m269
-49 c41 -8 106 -28 145 -44 300 -126 515 -442 570 -836 33 -234 -8 -484 -113
-701 -134 -273 -340 -446 -595 -500 -229 -48 -460 24 -651 202 -437 409 -452
1206 -32 1645 185 193 435 280 676 234z"/>
<path d="M1470 1380 c-9 -6 -10 -10 -3 -10 6 0 15 5 18 10 8 12 4 12 -15 0z"/>
<path d="M2160 1384 c0 -5 12 -22 26 -39 l26 -30 -23 35 c-29 45 -29 45 -29
34z"/>
<path d="M1484 1358 c-4 -6 -3 -8 4 -4 5 3 13 0 15 -6 3 -8 6 -6 6 5 1 19 -14
23 -25 5z"/>
<path d="M1370 1345 c0 -8 -4 -15 -10 -15 -16 0 -12 -125 6 -194 28 -109 72
-184 159 -271 56 -56 100 -90 146 -112 69 -34 172 -63 226 -63 l32 0 -24 53
c-16 33 -25 72 -26 107 l-1 55 -13 -40 c-8 -22 -14 -57 -14 -79 l-1 -38 -37 7
c-62 11 -176 71 -232 121 -54 48 -113 130 -144 197 -20 44 -54 224 -44 233 4
4 24 0 44 -9 44 -19 115 -38 121 -33 2 2 -14 10 -35 16 -21 7 -40 16 -43 19
-10 13 -73 53 -67 43 4 -5 -2 -12 -14 -15 -16 -4 -18 -3 -9 8 8 9 7 14 -5 19
-9 3 -15 0 -15 -9z"/>
<path d="M1576 1352 c-3 -5 -17 -7 -31 -4 -14 2 -25 0 -25 -6 0 -15 38 -35 50
-27 6 3 10 1 10 -4 0 -6 18 -14 41 -17 41 -7 69 -26 69 -48 0 -21 89 -96 113
-96 3 0 5 21 4 48 l-2 47 125 0 c109 -1 132 -4 177 -24 62 -27 115 -83 133
-136 19 -57 7 -148 -25 -196 -83 -127 -199 -92 -251 76 l-12 40 -12 -30 c-16
-39 -24 -143 -16 -190 5 -22 23 -54 46 -79 28 -31 46 -64 64 -122 14 -43 38
-95 54 -114 l29 -34 7 49 c11 69 41 138 94 214 71 101 86 148 86 276 1 101 -1
114 -26 161 -30 57 -82 107 -132 128 -18 7 -68 21 -112 29 -88 18 -341 40
-355 31 -5 -3 -9 -1 -9 4 0 5 -12 12 -27 15 -16 3 -35 8 -44 12 -10 3 -20 2
-23 -3z m24 -6 c0 -3 -4 -8 -10 -11 -5 -3 -10 -1 -10 4 0 6 5 11 10 11 6 0 10
-2 10 -4z"/>
<path d="M2485 1343 c-3 -8 -5 -36 -5 -61 0 -76 -59 -268 -87 -285 -6 -4 -17
18 -27 48 -23 74 -34 76 -22 4 6 -38 6 -83 0 -131 l-10 -72 47 53 c54 60 101
150 124 236 19 74 19 222 -1 222 -7 0 -16 -7 -19 -14z"/>
</g>
</svg>
